<svg width="5" height="12" viewBox="0 0 5 12" fill="none" xmlns="http://www.w3.org/2000/svg">
<path fill-rule="evenodd" clip-rule="evenodd" d="M0.15528 1.20348C0.0517597 1.06224 0 0.899303 0 0.714152C0 0.511545 0.0554862 0.343851 0.165631 0.211601C0.28323 0.0703572 0.414079 0 0.55942 0C0.717598 0 0.852588 0.0703572 0.962733 0.211601L4.83478 5.18422C4.94493 5.33392 5 5.50162 5 5.68677C5 5.88938 4.94493 6.05707 4.83478 6.18932L0.962733 11.1619C0.859213 11.3032 0.728364 11.3735 0.569358 11.3735C0.417805 11.3735 0.28323 11.3074 0.165631 11.1752C0.0554862 11.0339 0 10.871 0 10.6858C0 10.4832 0.0554862 10.3113 0.165631 10.1701L3.65424 5.68677L0.15528 1.20348Z" fill="#B7B7B7"/>
</svg>
