<svg width="30" height="31" viewBox="0 0 30 31" fill="none" xmlns="http://www.w3.org/2000/svg">
<circle cx="15" cy="15.0087" r="15" fill="#26D07C"/>
<path d="M12.7574 16.2229C12.2268 16.2229 12.0309 16.8466 12.0031 17.1759C11.9725 17.5164 12.0434 17.8164 12.192 17.9797C12.2837 18.0815 12.4087 18.1318 12.5629 18.1318C13.1603 18.1318 13.2617 17.3225 13.2756 17.1592C13.3062 16.8131 13.2381 16.5145 13.0964 16.3596C13.0117 16.2689 12.9005 16.2229 12.7574 16.2229Z" fill="white"/>
<path d="M22.1112 8.43673C20.1551 7.49904 18.7895 8.11161 17.5864 8.54557V8.54418C17.5864 8.54418 17.2405 8.67534 16.8168 8.73255C16.8168 8.73255 16.0124 8.90698 14.9052 8.34603C14.8247 8.29859 14.6621 8.23998 14.5802 8.19673C14.5788 8.19533 14.2009 8.02091 14.2009 8.02091C5.70436 4.2478 5.04308 12.2377 5.04308 12.2377C5.04308 12.2377 4.00811 19.8328 12.0837 21.39V21.3914C12.3963 21.4682 13.3243 21.8352 13.3604 22.7798C13.4132 24.0887 13.5563 25.8985 15.604 22.3724C15.7721 22.0836 16.3264 21.6314 17.3308 21.5477L17.3239 21.5463C24.4506 20.6324 24.966 14.2862 24.966 14.2862C24.9674 14.2652 25.5203 10.0721 22.1112 8.43673ZM14.3343 17.1774C14.2356 18.3007 13.6396 18.9705 12.738 18.9705C12.5116 18.9705 12.1254 18.9216 11.8448 18.6286L11.8211 18.8951H10.8237L11.2529 13.9792H12.2754L12.1212 15.7513C12.3546 15.5099 12.6602 15.3871 13.0353 15.3871C13.4396 15.3871 13.7591 15.5127 13.9856 15.7597C14.2676 16.0695 14.3884 16.5592 14.3343 17.1774ZM12.8436 10.7935C12.713 10.6819 12.6297 10.5368 12.5922 10.3805C12.5352 10.1475 12.5949 9.87537 12.7561 9.69258C12.9742 9.44559 13.4271 9.30745 13.8494 9.60467C15.9444 11.074 18.1713 9.96049 18.1949 9.94793C18.5714 9.74281 19.0437 9.88235 19.248 10.2605C19.4536 10.6386 19.3133 11.1131 18.9382 11.3196C18.8062 11.3908 15.7068 13.2382 12.8436 10.7935ZM16.2222 16.262L15.993 18.8951H14.9691L15.1984 16.262H14.576L14.6454 15.4625H15.2678L15.2998 15.0899C15.3637 14.3573 15.8305 13.9024 16.5167 13.9024C16.7571 13.9024 17.0002 13.9401 17.1474 13.975L17.2322 13.9945L17.0613 14.9099L16.9502 14.8401C16.8724 14.7913 16.7904 14.7397 16.6445 14.7397C16.4056 14.7397 16.3361 14.9657 16.3195 15.1555L16.2931 15.4611H17.028L16.9599 16.2606H16.2222V16.262ZM18.827 18.5128L18.777 18.6928C18.6923 18.9942 18.4158 19.2049 18.1032 19.2049C18.0393 19.2049 17.9754 19.1965 17.9129 19.1784L17.4975 19.0598C17.1266 18.9537 16.9099 18.5644 17.0141 18.1918L17.0655 18.0118C17.1502 17.7104 17.4267 17.4997 17.7393 17.4997C17.8032 17.4997 17.8671 17.5081 17.931 17.5262L18.3436 17.6448C18.7145 17.7495 18.9312 18.1388 18.827 18.5128ZM18.7159 17.2737L17.7573 17.0323L18.1102 14.508H19.655L18.7159 17.2737Z" fill="white"/>
</svg>
