<svg width="30" height="30" viewBox="0 0 30 30" fill="none" xmlns="http://www.w3.org/2000/svg">
<path d="M15 2.5C13.3584 2.5 11.733 2.82332 10.2164 3.45151C8.69984 4.07969 7.32185 5.00043 6.16112 6.16116C3.81692 8.50537 2.49995 11.6848 2.49995 15C2.48903 17.8864 3.48845 20.6857 5.32496 22.9125L2.82495 25.4125C2.65151 25.5883 2.53401 25.8115 2.48729 26.054C2.44058 26.2965 2.46673 26.5474 2.56245 26.775C2.66628 26.9999 2.83458 27.1889 3.04601 27.318C3.25744 27.4471 3.50246 27.5104 3.74995 27.5H15C18.3152 27.5 21.4946 26.183 23.8388 23.8388C26.183 21.4946 27.5 18.3152 27.5 15C27.5 11.6848 26.183 8.50537 23.8388 6.16116C21.4946 3.81696 18.3152 2.5 15 2.5ZM15 25H6.76246L7.92496 23.8375C8.04307 23.7217 8.13703 23.5837 8.2014 23.4313C8.26577 23.279 8.29927 23.1154 8.29996 22.95C8.29526 22.6203 8.16047 22.3058 7.92496 22.075C6.28819 20.44 5.26892 18.2882 5.04082 15.986C4.81271 13.6838 5.38988 11.3738 6.67399 9.4494C7.9581 7.52505 9.8697 6.10545 12.0831 5.43247C14.2965 4.75948 16.6748 4.87476 18.8127 5.75864C20.9507 6.64253 22.716 8.24034 23.808 10.2799C24.9 12.3194 25.251 14.6744 24.8014 16.9438C24.3517 19.2131 23.1291 21.2563 21.3419 22.7253C19.5547 24.1943 17.3134 24.9982 15 25Z" fill="#262626"/>
<path d="M9.30554 13.9607C9.5111 13.8233 9.75277 13.75 10 13.75C10.3315 13.75 10.6495 13.8817 10.8839 14.1161C11.1183 14.3505 11.25 14.6685 11.25 15C11.25 15.2472 11.1767 15.4889 11.0393 15.6945C10.902 15.9 10.7068 16.0602 10.4784 16.1548C10.2499 16.2495 9.99861 16.2742 9.75614 16.226C9.51366 16.1777 9.29093 16.0587 9.11612 15.8839C8.9413 15.7091 8.82225 15.4863 8.77402 15.2439C8.72579 15.0014 8.75054 14.7501 8.84515 14.5216C8.93976 14.2932 9.09998 14.098 9.30554 13.9607Z" fill="#262626"/>
<path d="M14.3055 13.9607C14.5111 13.8233 14.7528 13.75 15 13.75C15.3315 13.75 15.6495 13.8817 15.8839 14.1161C16.1183 14.3505 16.25 14.6685 16.25 15C16.25 15.2472 16.1767 15.4889 16.0393 15.6945C15.902 15.9 15.7068 16.0602 15.4784 16.1548C15.25 16.2495 14.9986 16.2742 14.7561 16.226C14.5137 16.1777 14.2909 16.0587 14.1161 15.8839C13.9413 15.7091 13.8223 15.4863 13.774 15.2439C13.7258 15.0014 13.7505 14.7501 13.8452 14.5216C13.9398 14.2932 14.1 14.098 14.3055 13.9607Z" fill="#262626"/>
<path d="M19.3055 13.9607C19.5111 13.8233 19.7528 13.75 20 13.75C20.3315 13.75 20.6495 13.8817 20.8839 14.1161C21.1183 14.3505 21.25 14.6685 21.25 15C21.25 15.2472 21.1767 15.4889 21.0393 15.6945C20.902 15.9 20.7068 16.0602 20.4784 16.1548C20.25 16.2495 19.9986 16.2742 19.7561 16.226C19.5137 16.1777 19.2909 16.0587 19.1161 15.8839C18.9413 15.7091 18.8223 15.4863 18.774 15.2439C18.7258 15.0014 18.7505 14.7501 18.8452 14.5216C18.9398 14.2932 19.1 14.098 19.3055 13.9607Z" fill="#262626"/>
</svg>
