<svg width="13" height="13" viewBox="0 0 13 13" fill="none" xmlns="http://www.w3.org/2000/svg">
<path d="M10.5342 1.44444H7.82222C7.49085 1.44444 7.22222 1.17581 7.22222 0.844444V0.6C7.22222 0.268629 7.49085 0 7.82222 0H11.7C12.418 0 13 0.582029 13 1.3V5.17778C13 5.50915 12.7314 5.77778 12.4 5.77778H12.1556C11.8242 5.77778 11.5556 5.50915 11.5556 5.17778V2.46584L6.71274 7.30866C6.47843 7.54297 6.09853 7.54297 5.86421 7.30866L5.69136 7.13581C5.45705 6.90149 5.45705 6.5216 5.69136 6.28728L10.5342 1.44444Z" fill="#767676"/>
<path d="M0 3.61111C0 2.41449 0.97005 1.44444 2.16667 1.44444H3.73333C4.0647 1.44444 4.33333 1.71307 4.33333 2.04444V2.28889C4.33333 2.62026 4.0647 2.88889 3.73333 2.88889H2.16667C1.76779 2.88889 1.44444 3.21224 1.44444 3.61111V10.8333C1.44444 11.2322 1.76779 11.5556 2.16667 11.5556H9.38889C9.78776 11.5556 10.1111 11.2322 10.1111 10.8333V9.26667C10.1111 8.9353 10.3797 8.66667 10.7111 8.66667H10.9556C11.2869 8.66667 11.5556 8.9353 11.5556 9.26667V10.8333C11.5556 12.0299 10.5855 13 9.38889 13H2.16667C0.97005 13 0 12.03 0 10.8333V3.61111Z" fill="#767676"/>
</svg>
