<svg width="19" height="19" viewBox="0 0 19 19" fill="none" xmlns="http://www.w3.org/2000/svg">
<path fill-rule="evenodd" clip-rule="evenodd" d="M13.9422 9.18853C13.4185 9.18853 12.9901 8.7724 12.9901 8.26367C12.9901 7.75495 13.4185 7.33882 13.9422 7.33882C14.4658 7.33882 14.8942 7.75495 14.8942 8.26367C14.8942 8.7724 14.4658 9.18853 13.9422 9.18853ZM9.50001 9.18853C8.97633 9.18853 8.54796 8.7724 8.54796 8.26367C8.54796 7.75495 8.97633 7.33882 9.50001 7.33882C10.0237 7.33882 10.4521 7.75495 10.4521 8.26367C10.4521 8.7724 10.0237 9.18853 9.50001 9.18853ZM5.05783 9.18853C4.53415 9.18853 4.10578 8.7724 4.10578 8.26367C4.10578 7.75495 4.53415 7.33882 5.05783 7.33882C5.58152 7.33882 6.00988 7.75495 6.00988 8.26367C6.00988 8.7724 5.58152 9.18853 5.05783 9.18853ZM12.8399 1.5835H6.16007C2.76361 1.5835 0 4.22348 0 7.46909V8.54576C0 11.9308 2.82068 14.7904 6.16007 14.7904H7.9561L13.3708 17.6624C13.4595 17.7098 13.5581 17.7335 13.6562 17.7335C13.761 17.7335 13.8651 17.7066 13.9582 17.6533C14.1389 17.5499 14.2497 17.362 14.2497 17.1591V14.2855C17.1114 13.6034 19 11.3505 19 8.54576V7.46909C19 4.22348 16.2364 1.5835 12.8399 1.5835Z" fill="#767676"/>
</svg>
