<svg width="28" height="28" viewBox="0 0 20 28" fill="none" xmlns="http://www.w3.org/2000/svg">
<path d="M9.25769 10.0776C11.0145 10.0776 12.5327 8.70735 12.5327 6.92756H10.7327C10.7327 7.62277 10.1134 8.27756 9.25769 8.27756V10.0776ZM12.5327 6.92756C12.5327 5.14777 11.0145 3.77756 9.25769 3.77756V5.57756C10.1134 5.57756 10.7327 6.23235 10.7327 6.92756H12.5327ZM9.25769 3.77756C7.50085 3.77756 5.98269 5.14777 5.98269 6.92756H7.78269C7.78269 6.23235 8.40203 5.57756 9.25769 5.57756V3.77756ZM5.98269 6.92756C5.98269 8.70735 7.50085 10.0776 9.25769 10.0776V8.27756C8.40203 8.27756 7.78269 7.62277 7.78269 6.92756H5.98269ZM9.25769 10.5276C7.50085 10.5276 5.98269 11.8978 5.98269 13.6776H7.78269C7.78269 12.9823 8.40203 12.3276 9.25769 12.3276V10.5276ZM5.98269 13.6776C5.98269 15.4573 7.50085 16.8276 9.25769 16.8276V15.0276C8.40203 15.0276 7.78269 14.3728 7.78269 13.6776H5.98269ZM9.25769 16.8276C11.0145 16.8276 12.5327 15.4573 12.5327 13.6776H10.7327C10.7327 14.3728 10.1134 15.0276 9.25769 15.0276V16.8276ZM12.5327 13.6776C12.5327 11.8978 11.0145 10.5276 9.25769 10.5276V12.3276C10.1134 12.3276 10.7327 12.9823 10.7327 13.6776H12.5327ZM9.25769 17.2776C7.50085 17.2776 5.98269 18.6478 5.98269 20.4276H7.78269C7.78269 19.7323 8.40203 19.0776 9.25769 19.0776V17.2776ZM5.98269 20.4276C5.98269 22.2073 7.50085 23.5776 9.25769 23.5776V21.7776C8.40203 21.7776 7.78269 21.1228 7.78269 20.4276H5.98269ZM9.25769 23.5776C11.0145 23.5776 12.5327 22.2073 12.5327 20.4276H10.7327C10.7327 21.1228 10.1134 21.7776 9.25769 21.7776V23.5776ZM12.5327 20.4276C12.5327 18.6478 11.0145 17.2776 9.25769 17.2776V19.0776C10.1134 19.0776 10.7327 19.7323 10.7327 20.4276H12.5327Z" fill="#262626"/>
</svg>
