<svg width="279" height="279" viewBox="0 0 279 279" fill="none" xmlns="http://www.w3.org/2000/svg">
<g filter="url(#filter0_f)">
<circle cx="139.5" cy="139.5" r="99.5" fill="#C5C5C5"/>
</g>
<circle cx="148.522" cy="114.95" r="99.4783" fill="url(#paint0_radial)"/>
<mask id="mask0" mask-type="alpha" maskUnits="userSpaceOnUse" x="49" y="15" width="199" height="200">
<path d="M248 114.95C248 169.89 203.462 214.428 148.522 214.428C93.5814 214.428 49.0435 169.89 49.0435 114.95C49.0435 60.0095 93.5814 15.4716 148.522 15.4716C203.462 15.4716 248 60.0095 248 114.95Z" fill="url(#paint1_radial)"/>
</mask>
<g mask="url(#mask0)">
<path d="M64.9598 -10.3928C77.5604 23.4299 136.584 91.0751 271.875 91.0751" stroke="#B8B8B8"/>
<path d="M84.8557 -24.3198C97.4563 9.50285 156.48 77.1481 291.771 77.1481" stroke="#B8B8B8"/>
<path d="M49.0435 15.4716C61.644 49.2942 120.668 116.939 255.958 116.939" stroke="#B8B8B8"/>
<path d="M37.1063 39.3463C49.7068 73.169 108.731 140.814 244.021 140.814" stroke="#B8B8B8"/>
<path d="M31.0001 90.2101C48.2314 121.925 116.181 180.598 250.127 161.575" stroke="#B8B8B8"/>
<path d="M53.0225 152.153C74.9124 179.758 143.21 224.985 241.28 185.05" stroke="#B8B8B8"/>
</g>
<circle cx="145" cy="85" r="2" fill="#E7E7E7"/>
<circle cx="119" cy="32" r="5" fill="#F7F7F7"/>
<defs>
<filter id="filter0_f" x="0" y="0" width="279" height="279" filterUnits="userSpaceOnUse" color-interpolation-filters="sRGB">
<feFlood flood-opacity="0" result="BackgroundImageFix"/>
<feBlend mode="normal" in="SourceGraphic" in2="BackgroundImageFix" result="shape"/>
<feGaussianBlur stdDeviation="20" result="effect1_foregroundBlur"/>
</filter>
<radialGradient id="paint0_radial" cx="0" cy="0" r="1" gradientUnits="userSpaceOnUse" gradientTransform="translate(193.962 70.7373) rotate(124.24) scale(224.82)">
<stop stop-color="#6F6F6F"/>
<stop offset="1" stop-color="#D8D8D8"/>
</radialGradient>
<radialGradient id="paint1_radial" cx="0" cy="0" r="1" gradientUnits="userSpaceOnUse" gradientTransform="translate(193.962 70.7373) rotate(124.24) scale(224.82)">
<stop stop-color="#B7B7B7"/>
<stop offset="1" stop-color="white"/>
</radialGradient>
</defs>
</svg>
