<svg width="53" height="58" viewBox="0 0 53 58" fill="none" xmlns="http://www.w3.org/2000/svg">
<g clip-path="url(#clip0)">
<path d="M36.5869 30.265L31.6735 33.3887L39.0637 45.0133L39.0802 45.0028C39.1073 45.0663 39.1376 45.1295 39.1757 45.1894C39.7326 46.0654 41.2835 46.0752 42.6401 45.2127C43.9968 44.3503 44.646 42.9417 44.0891 42.0657C44.051 42.0059 44.0078 41.9509 43.9607 41.9001L43.9771 41.8896L36.5869 30.265Z" fill="#DBDBDB"/>
<path d="M27.5533 35.3485L22.6399 38.4722L30.0301 50.0968L30.0466 50.0863C30.0738 50.1498 30.104 50.213 30.1421 50.2729C30.699 51.1488 32.25 51.1587 33.6066 50.2962C34.9632 49.4338 35.6124 48.0252 35.0555 47.1492C35.0174 47.0893 34.9742 47.0344 34.9271 46.9836L34.9435 46.9731L27.5533 35.3485Z" fill="#DBDBDB"/>
<path d="M20.3123 46.4844C20.2428 44.4676 20.7853 42.5976 21.8322 41.1752L22.7742 39.8971C23.2205 39.2918 24.1881 39.5951 24.7693 40.5248L26.4898 43.2727C26.9732 44.0436 27.0065 44.9639 26.555 45.3581C26.2115 45.6573 25.8803 45.9964 25.5632 46.3761C24.3096 47.8787 23.5519 49.7091 23.3422 51.4401C23.3004 51.7849 23.0627 52.0217 22.7545 52.0281L22.7433 52.0286C22.4482 52.0348 22.1494 51.8274 21.9928 51.5082L21.1419 49.7722C20.6454 48.7573 20.3534 47.6536 20.3135 46.5644C20.3138 46.5362 20.3136 46.5099 20.3123 46.4844Z" fill="#DBDBDB"/>
<path d="M33.0647 34.153L28.1513 37.2767L35.5415 48.9012L35.558 48.8908C35.5851 48.9543 35.6154 49.0175 35.6535 49.0774C36.2104 49.9533 37.7613 49.9632 39.1179 49.1007C40.4746 48.2383 41.1238 46.8297 40.5669 45.9537C40.5288 45.8938 40.4856 45.8389 40.4385 45.788L40.4549 45.7776L33.0647 34.153Z" fill="#E0E0E0"/>
<path d="M13.426 8.3866C9.64919 10.7877 8.44037 15.7391 10.6899 19.5999L24.8927 43.9648C26.9127 47.1422 32.1061 47.4579 36.4925 44.6694C40.8788 41.8808 42.7966 37.0442 40.7766 33.8668L24.7407 10.6672C22.2005 6.99123 17.204 5.98477 13.426 8.3866Z" fill="url(#paint0_radial)"/>
<path d="M22.5079 25.5308C24.1974 24.4567 24.6981 22.2191 23.6262 20.5331C22.5543 18.847 20.3157 18.3509 18.6262 19.4249C16.9367 20.499 16.436 22.7366 17.508 24.4227C18.5799 26.1088 20.8184 26.6049 22.5079 25.5308Z" fill="#DBDBDB"/>
<path d="M21.0992 26.0851C19.8828 26.0818 18.6965 25.4659 18.0175 24.351C16.9773 22.6446 17.521 20.4178 19.2307 19.3753C19.6341 19.1288 20.0667 18.9725 20.5063 18.8974C19.8589 18.8952 19.2029 19.0665 18.6103 19.4285C16.9005 20.4709 16.3569 22.6978 17.397 24.4041C18.1912 25.7079 19.6793 26.3283 21.0992 26.0851Z" fill="#C1C1C1"/>
<path d="M45.065 31.4076C43.2683 30.4889 41.3447 30.1866 39.6125 30.5311L38.0554 30.8417C37.3181 30.989 37.182 31.9938 37.7773 32.9146L39.5355 35.6385C40.0284 36.4034 40.8476 36.8241 41.3962 36.5825C41.8128 36.3984 42.2604 36.2424 42.7387 36.1164C44.6313 35.6189 46.6103 35.7095 48.2667 36.2541C48.5967 36.3625 48.912 36.2478 49.0485 35.9714L49.0538 35.9615C49.1846 35.6969 49.1236 35.3384 48.901 35.0611L47.6901 33.554C46.9818 32.6737 46.1062 31.941 45.1369 31.4427C45.1112 31.4309 45.0887 31.4189 45.065 31.4076Z" fill="#DBDBDB"/>
</g>
<defs>
<radialGradient id="paint0_radial" cx="0" cy="0" r="1" gradientUnits="userSpaceOnUse" gradientTransform="translate(14.7799 14.1809) rotate(-32.4458) scale(26.5514 26.4976)">
<stop stop-color="#E6E6E6"/>
<stop offset="1" stop-color="#686868"/>
</radialGradient>
<clipPath id="clip0">
<rect width="31.5415" height="48.1424" fill="white" transform="translate(0 16.9221) rotate(-32.4458)"/>
</clipPath>
</defs>
</svg>
