<svg width="53" height="58" viewBox="0 0 53 58" fill="none" xmlns="http://www.w3.org/2000/svg">
<g clip-path="url(#clip0)">
<path d="M29.303 38.8542L24.455 35.63L16.8267 47.0998L16.843 47.1106C16.7959 47.1612 16.7504 47.2145 16.7111 47.2736C16.1363 48.1379 16.7564 49.5595 18.0949 50.4498C19.4335 51.34 20.9843 51.3621 21.5592 50.4978C21.5984 50.4387 21.6312 50.377 21.6585 50.3132L21.6747 50.324L29.303 38.8542Z" fill="#DBDBDB"/>
<path d="M20.9925 32.6588L16.1445 29.4345L8.5163 40.9043L8.53256 40.9151C8.48551 40.9657 8.44002 41.019 8.40073 41.0781C7.82591 41.9424 8.44597 43.3641 9.78451 44.2543C11.1231 45.1445 12.6739 45.1667 13.2487 44.3024C13.288 44.2433 13.3207 44.1815 13.3481 44.1178L13.3643 44.1286L20.9925 32.6588Z" fill="#DBDBDB"/>
<path d="M7.87682 30.5565C9.6921 29.675 11.6215 29.4125 13.3462 29.7926L14.8965 30.1352C15.6307 30.2976 15.746 31.3051 15.1319 32.2134L13.318 34.9005C12.8094 35.6551 11.9817 36.0588 11.4382 35.8059C11.0255 35.6133 10.5811 35.4481 10.1055 35.3123C8.22358 34.7759 6.24314 34.8256 4.57589 35.336C4.24375 35.4376 3.93087 35.3164 3.80007 35.0373L3.79502 35.0272C3.66965 34.76 3.7381 34.4028 3.96632 34.1302L5.20804 32.6483C5.93434 31.7828 6.8248 31.0683 7.80424 30.5901C7.83011 30.5789 7.85404 30.5681 7.87682 30.5565Z" fill="#DBDBDB"/>
<path d="M24.3206 37.2116L19.4726 33.9874L11.8444 45.4572L11.8606 45.468C11.8136 45.5186 11.7681 45.5719 11.7288 45.631C11.154 46.4953 11.774 47.9169 13.1126 48.8072C14.4511 49.6974 16.002 49.7195 16.5768 48.8552C16.6161 48.7961 16.6488 48.7344 16.6761 48.6706L16.6924 48.6814L24.3206 37.2116Z" fill="#E0E0E0"/>
<path d="M39.9076 8.81036C36.181 6.33194 31.1648 7.23521 28.5483 10.8573L12.0376 33.7214C9.95257 36.8565 11.7703 41.7317 16.0982 44.61C20.4261 47.4884 25.625 47.2798 27.71 44.1447L42.412 20.0777C44.7418 16.2648 43.6353 11.2896 39.9076 8.81036Z" fill="url(#paint0_radial)"/>
<path d="M27.9202 24.0651C29.5872 25.1738 31.8355 24.7239 32.942 23.0603C34.0484 21.3967 33.594 19.1493 31.927 18.0406C30.2599 16.9319 28.0116 17.3818 26.9052 19.0454C25.7988 20.709 26.2532 22.9564 27.9202 24.0651Z" fill="#DBDBDB"/>
<path d="M26.8422 23.0022C26.3518 21.8891 26.4337 20.5549 27.1774 19.4821C28.3152 17.8392 30.5712 17.433 32.2175 18.573C32.6064 18.8417 32.9248 19.1737 33.1717 19.5452C32.9112 18.9525 32.4885 18.4224 31.9173 18.0275C30.271 16.8874 28.015 17.2937 26.8772 18.9365C26.0075 20.1912 26.044 21.803 26.8422 23.0022Z" fill="#C1C1C1"/>
<path d="M31.6972 47.0671C31.8082 45.0522 31.3043 43.1714 30.2869 41.7278L29.3715 40.4305C28.9378 39.8162 27.9642 40.0994 27.364 41.017L25.5872 43.7288C25.0879 44.4896 25.0357 45.409 25.479 45.8124C25.8162 46.1186 26.1404 46.4645 26.4496 46.8506C27.6719 48.3788 28.3918 50.2244 28.5657 51.9593C28.6005 52.3049 28.8332 52.5466 29.1412 52.5593L29.1524 52.5601C29.4473 52.5724 29.7503 52.3711 29.9135 52.0553L30.8 50.3371C31.3173 49.3327 31.6319 48.2352 31.6943 47.1471C31.6946 47.1189 31.6965 47.0934 31.6972 47.0671Z" fill="#DBDBDB"/>
</g>
<defs>
<radialGradient id="paint0_radial" cx="0" cy="0" r="1" gradientUnits="userSpaceOnUse" gradientTransform="translate(35.1604 12.398) rotate(33.6267) scale(26.5514 26.4976)">
<stop stop-color="#E6E6E6"/>
<stop offset="1" stop-color="#686868"/>
</radialGradient>
<clipPath id="clip0">
<rect width="31.5415" height="48.1424" fill="white" transform="translate(26.6603) rotate(33.6267)"/>
</clipPath>
</defs>
</svg>
