<svg width="57" height="58" viewBox="0 0 57 58" fill="none" xmlns="http://www.w3.org/2000/svg">
<g clip-path="url(#clip0)">
<path d="M27.6663 18.8155L31.8677 22.8462L41.404 12.906L41.3899 12.8925C41.4451 12.851 41.4993 12.8066 41.5484 12.7554C42.267 12.0064 41.9081 10.4975 40.7481 9.38458C39.5881 8.27169 38.0656 7.97567 37.347 8.72469C37.2979 8.7759 37.2547 8.83093 37.2166 8.88881L37.2025 8.8753L27.6663 18.8155Z" fill="#DBDBDB"/>
<path d="M34.7502 26.3828L38.9517 30.4135L48.4879 20.4734L48.4738 20.4599C48.529 20.4184 48.5832 20.374 48.6324 20.3228C49.351 19.5738 48.9921 18.0648 47.832 16.9519C46.672 15.8391 45.1495 15.543 44.4309 16.2921C44.3818 16.3433 44.3387 16.3983 44.3005 16.4562L44.2864 16.4427L34.7502 26.3828Z" fill="#DBDBDB"/>
<path d="M47.2875 30.7712C45.3449 31.3178 43.3995 31.235 41.7692 30.556L40.3039 29.9446C39.61 29.6549 39.6747 28.6429 40.4397 27.8575L42.7002 25.5335C43.3342 24.8807 44.2203 24.6298 44.7105 24.9747C45.0826 25.2373 45.4908 25.4785 45.9349 25.6963C47.6923 26.557 49.6503 26.8583 51.3816 26.6507C51.7264 26.6095 52.013 26.7841 52.0923 27.082L52.0955 27.0927C52.1717 27.3779 52.0411 27.7174 51.7683 27.9454L50.2841 29.1843C49.4162 29.9077 48.4134 30.4535 47.3649 30.751C47.3374 30.7574 47.312 30.7638 47.2875 30.7712Z" fill="#DBDBDB"/>
<path d="M32.2797 21.3132L36.4811 25.3439L46.0174 15.4038L46.0033 15.3903C46.0585 15.3488 46.1127 15.3044 46.1619 15.2532C46.8804 14.5041 46.5215 12.9952 45.3615 11.8823C44.2015 10.7694 42.679 10.4734 41.9604 11.2224C41.9113 11.2737 41.8681 11.3287 41.83 11.3866L41.8159 11.3731L32.2797 21.3132Z" fill="#E0E0E0"/>
<path d="M11.9162 46.5107C15.1458 49.609 20.2426 49.607 23.4584 46.5047L43.752 26.9204C46.3585 24.2034 45.4315 19.0837 41.6808 15.4854C37.93 11.8871 32.7762 11.1731 30.1697 13.8901L11.4437 34.9781C8.47632 38.3188 8.68562 43.4114 11.9162 46.5107Z" fill="url(#paint0_radial)"/>
<path d="M26.4121 33.616C24.9674 32.2301 22.675 32.2753 21.2918 33.717C19.9086 35.1588 19.9585 37.4511 21.4032 38.8371C22.8479 40.2231 25.1403 40.1779 26.5235 38.7361C27.9067 37.2944 27.8568 35.002 26.4121 33.616Z" fill="#DBDBDB"/>
<path d="M27.2852 34.8528C27.571 36.0351 27.2544 37.3338 26.3328 38.2582C24.9224 39.674 22.6301 39.6749 21.2114 38.2617C20.8761 37.9285 20.6215 37.5454 20.4441 37.1361C20.5957 37.7656 20.918 38.362 21.4104 38.8518C22.8291 40.2649 25.1214 40.264 26.5318 38.8483C27.6096 37.7671 27.8587 36.1743 27.2852 34.8528Z" fill="#C1C1C1"/>
<path d="M26.7621 10.3086C26.2965 12.2722 26.4599 14.2125 27.206 15.8132L27.8776 17.252C28.1958 17.9333 29.2042 17.8267 29.9572 17.0297L32.1855 14.6748C32.8114 14.0143 33.0254 13.1186 32.6604 12.6431C32.3827 12.2822 32.1248 11.8844 31.8888 11.4497C30.9559 9.72946 30.5737 7.78561 30.7093 6.04727C30.7362 5.70098 30.5499 5.42194 30.249 5.35499L30.2381 5.35225C29.95 5.28799 29.6163 5.43248 29.3998 5.71453L28.2234 7.24881C27.5366 8.14595 27.0329 9.1705 26.7791 10.2305C26.7738 10.2582 26.7675 10.2829 26.7621 10.3086Z" fill="#DBDBDB"/>
</g>
<defs>
<radialGradient id="paint0_radial" cx="0" cy="0" r="1" gradientUnits="userSpaceOnUse" gradientTransform="translate(17.223 43.8191) rotate(-136.188) scale(26.5514 26.4976)">
<stop stop-color="#E6E6E6"/>
<stop offset="1" stop-color="#686868"/>
</radialGradient>
<clipPath id="clip0">
<rect width="31.5415" height="48.1424" fill="white" transform="translate(23.3967 57.5247) rotate(-136.188)"/>
</clipPath>
</defs>
</svg>
