<svg width="16" height="16" viewBox="0 0 16 16" fill="none" xmlns="http://www.w3.org/2000/svg">
<path fill-rule="evenodd" clip-rule="evenodd" d="M14.3958 10.6093C13.1811 10.0135 11.7571 10.4177 10.9914 11.4968L5.39218 8.75147C5.51231 8.31381 5.53758 7.8491 5.44116 7.38916L11.1481 4.65076C11.9298 5.60618 13.2574 5.95418 14.4097 5.40087C15.7879 4.73988 16.3839 3.0545 15.7415 1.6365C15.0991 0.218488 13.4611 -0.395293 12.0829 0.266232C10.8625 0.851366 10.2598 2.23861 10.582 3.53301L4.92352 6.24807C4.15324 5.22687 2.77715 4.84704 1.59028 5.41679C0.212123 6.07778 -0.38389 7.76316 0.258526 9.1817C0.901458 10.5992 2.53946 11.213 3.91762 10.5514C4.27028 10.3822 4.57034 10.144 4.81318 9.86232L10.514 12.6575C10.2949 13.8861 10.8785 15.1609 12.0272 15.7237C13.3997 16.3969 15.0429 15.7975 15.6966 14.3853C16.3509 12.9731 15.7688 11.2825 14.3958 10.6093Z" fill="#767676"/>
</svg>
