<svg width="375" height="662" viewBox="0 0 375 662" fill="none" xmlns="http://www.w3.org/2000/svg">
<path d="M239.056 67.8091C238.73 67.552 175.082 9.47802 105.648 52.7077C65.8164 77.5341 59.2893 109.365 51.7786 136.206L51.7553 136.198C51.7553 136.198 49.7069 143.977 45.453 152.359C45.453 152.359 38.4916 168.98 15.438 182.678C13.6422 183.595 10.6749 185.877 8.93012 186.868C8.89723 186.884 1.30262 191.743 1.30262 191.743C-166.673 302.984 -40.6088 406.512 -40.6088 406.512C-40.6088 406.512 7.70075 450.986 75.9139 447.086C93.1549 445.424 108.386 441.949 122.013 437.058C139.188 430.513 157.086 420.403 175.348 405.676C204.235 380.843 224.795 348.679 248.05 319.303C263.377 299.943 275.079 274.306 283.827 249.279C320.067 134.152 239.056 67.8091 239.056 67.8091Z" fill="#FAFAFA"/>
<path d="M421.695 431.981C421.512 431.733 387.195 377.758 329.049 395.239C295.687 405.286 284.826 426.824 274.229 444.595L274.214 444.584C274.214 444.584 271.235 449.76 266.558 454.938C266.558 454.938 258.341 465.494 239.163 470.829C237.698 471.136 235.129 472.195 233.686 472.566C233.659 472.571 227.274 474.576 227.274 474.576C85.3114 521.637 155.515 620.305 155.515 620.305C155.515 620.305 181.485 661.556 231.115 672.016C243.79 674.176 255.378 674.646 266.091 673.789C279.668 672.437 294.456 668.672 310.401 661.669C335.923 649.49 356.903 630.441 379.272 613.913C394.015 603.02 407.381 586.926 418.511 570.696C466.845 495.254 421.695 431.981 421.695 431.981Z" fill="#FAFAFA"/>
<path d="M73.6209 226.588C73.7743 226.518 106.566 214.436 103.956 181.363C102.45 162.386 92.2045 154.095 83.9404 146.381L83.9478 146.374C83.9478 146.374 81.5284 144.185 79.3041 141.088C79.3041 141.088 74.6175 135.48 73.987 124.621C73.992 123.803 73.724 122.309 73.6927 121.496C73.6931 121.481 73.3606 117.839 73.3606 117.839C64.6489 36.5872 3.83985 62.6647 3.83985 62.6647C3.83985 62.6647 -21.1921 71.7619 -32.5177 97.0547C-35.137 103.574 -36.7282 109.707 -37.5098 115.527C-38.358 122.934 -38.0576 131.266 -36.1621 140.591C-32.6103 155.628 -24.8645 169.035 -18.6254 182.892C-14.514 192.024 -7.46552 201.023 -0.085506 208.844C34.6107 243.38 73.6209 226.588 73.6209 226.588Z" fill="#F7F7F7"/>
<circle cx="181" cy="498" r="2" fill="#DBDBDB"/>
<circle cx="296" cy="423" r="5" fill="#F7F7F7"/>
<circle cx="339" cy="187" r="2" fill="#B7B7B7"/>
<circle cx="255" cy="379" r="2" fill="#B7B7B7"/>
<circle cx="343" cy="344" r="2" fill="#9C9C9C"/>
</svg>
